<?xml version="1.0" encoding="UTF-8" standalone="no"?>
<!DOCTYPE svg PUBLIC "-//W3C//DTD SVG 1.1//EN"
 "http://www.w3.org/Graphics/SVG/1.1/DTD/svg11.dtd">
<!-- Generated by graphviz version 2.43.0 (0)
 -->
<!-- Title: %3 Pages: 1 -->
<svg width="542pt" height="368pt"
 viewBox="0.00 0.00 542.00 368.00" xmlns="http://www.w3.org/2000/svg" xmlns:xlink="http://www.w3.org/1999/xlink">
<g id="graph0" class="graph" transform="scale(1 1) rotate(0) translate(4 364)">
<title>%3</title>
<polygon fill="white" stroke="transparent" points="-4,4 -4,-364 538,-364 538,4 -4,4"/>
<!-- emit_local_remote -->
<g id="node1" class="node">
<title>emit_local_remote</title>
<polygon fill="#ef5350" stroke="black" points="256.5,-36 64.5,-36 64.5,0 256.5,0 256.5,-36"/>
<text text-anchor="middle" x="160.5" y="-14.3" font-family="Times,serif" font-size="14.00" fill="white">emit_local + call_remote</text>
</g>
<!-- emit_local_remote_fix -->
<g id="node2" class="node">
<title>emit_local_remote_fix</title>
<polygon fill="#66bb6a" stroke="black" points="516.5,-36 435.5,-36 435.5,0 516.5,0 516.5,-36"/>
<text text-anchor="middle" x="476" y="-14.3" font-family="Times,serif" font-size="14.00" fill="white">call_local</text>
</g>
<!-- emit_local_remote&#45;&gt;emit_local_remote_fix -->
<g id="edge1" class="edge">
<title>emit_local_remote&#45;&gt;emit_local_remote_fix</title>
<path fill="none" stroke="black" d="M256.84,-18C312.32,-18 380,-18 425.13,-18"/>
<polygon fill="black" stroke="black" points="425.24,-21.5 435.24,-18 425.24,-14.5 425.24,-21.5"/>
<text text-anchor="middle" x="369.5" y="-21.8" font-family="Times,serif" font-size="14.00">Auto&#45;Fix</text>
</g>
<!-- emit_local_authority -->
<g id="node3" class="node">
<title>emit_local_authority</title>
<polygon fill="#ef5350" stroke="black" points="248.5,-90 72.5,-90 72.5,-54 248.5,-54 248.5,-90"/>
<text text-anchor="middle" x="160.5" y="-68.3" font-family="Times,serif" font-size="14.00" fill="white">emit_local + authority</text>
</g>
<!-- emit_local_authority_fix -->
<g id="node4" class="node">
<title>emit_local_authority_fix</title>
<polygon fill="#66bb6a" stroke="black" points="516.5,-90 435.5,-90 435.5,-54 516.5,-54 516.5,-90"/>
<text text-anchor="middle" x="476" y="-68.3" font-family="Times,serif" font-size="14.00" fill="white">any_peer</text>
</g>
<!-- emit_local_authority&#45;&gt;emit_local_authority_fix -->
<g id="edge2" class="edge">
<title>emit_local_authority&#45;&gt;emit_local_authority_fix</title>
<path fill="none" stroke="black" d="M248.83,-72C305.59,-72 377.57,-72 424.9,-72"/>
<polygon fill="black" stroke="black" points="425.19,-75.5 435.19,-72 425.19,-68.5 425.19,-75.5"/>
<text text-anchor="middle" x="369.5" y="-75.8" font-family="Times,serif" font-size="14.00">Auto&#45;Fix</text>
</g>
<!-- emit_local_unreliable -->
<g id="node5" class="node">
<title>emit_local_unreliable</title>
<polygon fill="#ef5350" stroke="black" points="321,-144 0,-144 0,-108 321,-108 321,-144"/>
<text text-anchor="middle" x="160.5" y="-122.3" font-family="Times,serif" font-size="14.00" fill="white">emit_local + unreliable/unreliable_ordered</text>
</g>
<!-- emit_local_unreliable_fix -->
<g id="node6" class="node">
<title>emit_local_unreliable_fix</title>
<polygon fill="#66bb6a" stroke="black" points="511.5,-144 440.5,-144 440.5,-108 511.5,-108 511.5,-144"/>
<text text-anchor="middle" x="476" y="-122.3" font-family="Times,serif" font-size="14.00" fill="white">reliable</text>
</g>
<!-- emit_local_unreliable&#45;&gt;emit_local_unreliable_fix -->
<g id="edge3" class="edge">
<title>emit_local_unreliable&#45;&gt;emit_local_unreliable_fix</title>
<path fill="none" stroke="black" d="M321.01,-126C361.15,-126 401.06,-126 430.18,-126"/>
<polygon fill="black" stroke="black" points="430.41,-129.5 440.41,-126 430.41,-122.5 430.41,-129.5"/>
<text text-anchor="middle" x="369.5" y="-129.8" font-family="Times,serif" font-size="14.00">Auto&#45;Fix</text>
</g>
<!-- to_server_anypeer -->
<g id="node7" class="node">
<title>to_server_anypeer</title>
<polygon fill="#ef5350" stroke="black" points="245,-198 76,-198 76,-162 245,-162 245,-198"/>
<text text-anchor="middle" x="160.5" y="-176.3" font-family="Times,serif" font-size="14.00" fill="white">to_server + any_peer</text>
</g>
<!-- to_server_anypeer_fix -->
<g id="node8" class="node">
<title>to_server_anypeer_fix</title>
<polygon fill="#66bb6a" stroke="black" points="517.5,-198 434.5,-198 434.5,-162 517.5,-162 517.5,-198"/>
<text text-anchor="middle" x="476" y="-176.3" font-family="Times,serif" font-size="14.00" fill="white">authority</text>
</g>
<!-- to_server_anypeer&#45;&gt;to_server_anypeer_fix -->
<g id="edge4" class="edge">
<title>to_server_anypeer&#45;&gt;to_server_anypeer_fix</title>
<path fill="none" stroke="black" d="M245.1,-180C302.05,-180 375.6,-180 423.98,-180"/>
<polygon fill="black" stroke="black" points="424.21,-183.5 434.21,-180 424.21,-176.5 424.21,-183.5"/>
<text text-anchor="middle" x="369.5" y="-183.8" font-family="Times,serif" font-size="14.00">Auto&#45;Fix</text>
</g>
<!-- to_server_calllocal -->
<g id="node9" class="node">
<title>to_server_calllocal</title>
<polygon fill="#ef5350" stroke="black" points="245,-252 76,-252 76,-216 245,-216 245,-252"/>
<text text-anchor="middle" x="160.5" y="-230.3" font-family="Times,serif" font-size="14.00" fill="white">to_server + call_local</text>
</g>
<!-- to_server_calllocal_fix -->
<g id="node10" class="node">
<title>to_server_calllocal_fix</title>
<polygon fill="#66bb6a" stroke="black" points="525.5,-252 426.5,-252 426.5,-216 525.5,-216 525.5,-252"/>
<text text-anchor="middle" x="476" y="-230.3" font-family="Times,serif" font-size="14.00" fill="white">call_remote</text>
</g>
<!-- to_server_calllocal&#45;&gt;to_server_calllocal_fix -->
<g id="edge5" class="edge">
<title>to_server_calllocal&#45;&gt;to_server_calllocal_fix</title>
<path fill="none" stroke="black" d="M245.1,-234C299.01,-234 367.79,-234 416.02,-234"/>
<polygon fill="black" stroke="black" points="416.29,-237.5 426.29,-234 416.29,-230.5 416.29,-237.5"/>
<text text-anchor="middle" x="369.5" y="-237.8" font-family="Times,serif" font-size="14.00">Auto&#45;Fix</text>
</g>
<!-- to_id_calllocal -->
<g id="node11" class="node">
<title>to_id_calllocal</title>
<polygon fill="#ef5350" stroke="black" points="250,-306 71,-306 71,-270 250,-270 250,-306"/>
<text text-anchor="middle" x="160.5" y="-284.3" font-family="Times,serif" font-size="14.00" fill="white">to_id/to_all + call_local</text>
</g>
<!-- to_id_calllocal_fix -->
<g id="node12" class="node">
<title>to_id_calllocal_fix</title>
<polygon fill="#66bb6a" stroke="black" points="525.5,-306 426.5,-306 426.5,-270 525.5,-270 525.5,-306"/>
<text text-anchor="middle" x="476" y="-284.3" font-family="Times,serif" font-size="14.00" fill="white">call_remote</text>
</g>
<!-- to_id_calllocal&#45;&gt;to_id_calllocal_fix -->
<g id="edge6" class="edge">
<title>to_id_calllocal&#45;&gt;to_id_calllocal_fix</title>
<path fill="none" stroke="black" d="M250.08,-288C303.1,-288 369.06,-288 415.8,-288"/>
<polygon fill="black" stroke="black" points="416.06,-291.5 426.06,-288 416.06,-284.5 416.06,-291.5"/>
<text text-anchor="middle" x="369.5" y="-291.8" font-family="Times,serif" font-size="14.00">Auto&#45;Fix</text>
</g>
<!-- channel_invalid -->
<g id="node13" class="node">
<title>channel_invalid</title>
<polygon fill="#ef5350" stroke="black" points="236.5,-360 84.5,-360 84.5,-324 236.5,-324 236.5,-360"/>
<text text-anchor="middle" x="160.5" y="-338.3" font-family="Times,serif" font-size="14.00" fill="white">channel &lt; 0 or &gt; 4</text>
</g>
<!-- channel_invalid_fix -->
<g id="node14" class="node">
<title>channel_invalid_fix</title>
<polygon fill="#66bb6a" stroke="black" points="534,-360 418,-360 418,-324 534,-324 534,-360"/>
<text text-anchor="middle" x="476" y="-338.3" font-family="Times,serif" font-size="14.00" fill="white">0–4 (clamped)</text>
</g>
<!-- channel_invalid&#45;&gt;channel_invalid_fix -->
<g id="edge7" class="edge">
<title>channel_invalid&#45;&gt;channel_invalid_fix</title>
<path fill="none" stroke="black" d="M236.59,-342C288.62,-342 357.3,-342 407.57,-342"/>
<polygon fill="black" stroke="black" points="407.69,-345.5 417.69,-342 407.69,-338.5 407.69,-345.5"/>
<text text-anchor="middle" x="369.5" y="-345.8" font-family="Times,serif" font-size="14.00">Auto&#45;Fix</text>
</g>
</g>
</svg>
