<?xml version="1.0" encoding="UTF-8" standalone="no"?>
<!DOCTYPE svg PUBLIC "-//W3C//DTD SVG 1.1//EN"
 "http://www.w3.org/Graphics/SVG/1.1/DTD/svg11.dtd">
<!-- Generated by graphviz version 2.43.0 (0)
 -->
<!-- Title: %3 Pages: 1 -->
<svg width="432pt" height="281pt"
 viewBox="0.00 0.00 432.00 281.28" xmlns="http://www.w3.org/2000/svg" xmlns:xlink="http://www.w3.org/1999/xlink">
<g id="graph0" class="graph" transform="scale(0.53 0.53) rotate(0) translate(4 526)">
<title>%3</title>
<polygon fill="white" stroke="transparent" points="-4,4 -4,-526 810,-526 810,4 -4,4"/>
<!-- Start -->
<g id="node1" class="node">
<title>Start</title>
<ellipse fill="#8bc34a" stroke="black" cx="392" cy="-504" rx="34.39" ry="18"/>
<text text-anchor="middle" x="392" y="-500.3" font-family="Times,serif" font-size="14.00" fill="white">Start</text>
</g>
<!-- CheckTarget -->
<g id="node2" class="node">
<title>CheckTarget</title>
<polygon fill="#03a9f4" stroke="black" points="392,-449 289.95,-431 392,-413 494.05,-431 392,-449"/>
<text text-anchor="middle" x="392" y="-427.3" font-family="Times,serif" font-size="14.00" fill="white">Check Target</text>
</g>
<!-- Start&#45;&gt;CheckTarget -->
<g id="edge1" class="edge">
<title>Start&#45;&gt;CheckTarget</title>
<path fill="none" stroke="black" d="M392,-485.81C392,-477.79 392,-468.05 392,-459.07"/>
<polygon fill="black" stroke="black" points="395.5,-459.03 392,-449.03 388.5,-459.03 395.5,-459.03"/>
</g>
<!-- EmitLocal -->
<g id="node3" class="node">
<title>EmitLocal</title>
<polygon fill="#fdd835" stroke="black" points="290.5,-362 201.5,-362 201.5,-326 290.5,-326 290.5,-362"/>
<text text-anchor="middle" x="246" y="-340.3" font-family="Times,serif" font-size="14.00">emit_local</text>
</g>
<!-- CheckTarget&#45;&gt;EmitLocal -->
<g id="edge2" class="edge">
<title>CheckTarget&#45;&gt;EmitLocal</title>
<path fill="none" stroke="black" d="M362.42,-418.21C347.8,-411.97 330.1,-403.79 315,-395 301.52,-387.16 287.44,-377.3 275.54,-368.41"/>
<polygon fill="black" stroke="black" points="277.39,-365.41 267.31,-362.15 273.15,-370.99 277.39,-365.41"/>
<text text-anchor="middle" x="351.5" y="-383.8" font-family="Times,serif" font-size="14.00">emit_local</text>
</g>
<!-- ToServer -->
<g id="node5" class="node">
<title>ToServer</title>
<polygon fill="#fdd835" stroke="black" points="433.5,-362 350.5,-362 350.5,-326 433.5,-326 433.5,-362"/>
<text text-anchor="middle" x="392" y="-340.3" font-family="Times,serif" font-size="14.00">to_server</text>
</g>
<!-- CheckTarget&#45;&gt;ToServer -->
<g id="edge5" class="edge">
<title>CheckTarget&#45;&gt;ToServer</title>
<path fill="none" stroke="black" d="M392,-412.8C392,-401.16 392,-385.55 392,-372.24"/>
<polygon fill="black" stroke="black" points="395.5,-372.18 392,-362.18 388.5,-372.18 395.5,-372.18"/>
<text text-anchor="middle" x="425.5" y="-383.8" font-family="Times,serif" font-size="14.00">to_server</text>
</g>
<!-- ToIdAll -->
<g id="node7" class="node">
<title>ToIdAll</title>
<polygon fill="#fdd835" stroke="black" points="597.5,-362 494.5,-362 494.5,-326 597.5,-326 597.5,-362"/>
<text text-anchor="middle" x="546" y="-340.3" font-family="Times,serif" font-size="14.00">to_id / to_all</text>
</g>
<!-- CheckTarget&#45;&gt;ToIdAll -->
<g id="edge8" class="edge">
<title>CheckTarget&#45;&gt;ToIdAll</title>
<path fill="none" stroke="black" d="M418.57,-417.56C432.02,-411.09 448.53,-402.91 463,-395 478.77,-386.38 495.83,-376.25 510.36,-367.37"/>
<polygon fill="black" stroke="black" points="512.36,-370.25 519.05,-362.02 508.7,-364.28 512.36,-370.25"/>
<text text-anchor="middle" x="531.5" y="-383.8" font-family="Times,serif" font-size="14.00">to_id / to_all</text>
</g>
<!-- EmitLocalFix -->
<g id="node4" class="node">
<title>EmitLocalFix</title>
<path fill="#fff9c4" stroke="black" d="M230,-289C230,-289 12,-289 12,-289 6,-289 0,-283 0,-277 0,-277 0,-233 0,-233 0,-227 6,-221 12,-221 12,-221 230,-221 230,-221 236,-221 242,-227 242,-233 242,-233 242,-277 242,-277 242,-283 236,-289 230,-289"/>
<text text-anchor="middle" x="121" y="-273.8" font-family="Times,serif" font-size="14.00">Sync != call_local → call_local</text>
<text text-anchor="middle" x="121" y="-258.8" font-family="Times,serif" font-size="14.00">Mode != any_peer → any_peer</text>
<text text-anchor="middle" x="121" y="-243.8" font-family="Times,serif" font-size="14.00">Transfer != reliable → reliable</text>
<text text-anchor="middle" x="121" y="-228.8" font-family="Times,serif" font-size="14.00">If unreliable_ordered → reliable</text>
</g>
<!-- EmitLocal&#45;&gt;EmitLocalFix -->
<g id="edge3" class="edge">
<title>EmitLocal&#45;&gt;EmitLocalFix</title>
<path fill="none" stroke="black" d="M221.3,-325.81C208.58,-316.95 192.5,-305.76 176.97,-294.95"/>
<polygon fill="black" stroke="black" points="178.63,-291.84 168.42,-289 174.63,-297.59 178.63,-291.84"/>
</g>
<!-- ChannelCheck -->
<g id="node9" class="node">
<title>ChannelCheck</title>
<polygon fill="#03a9f4" stroke="black" points="392,-184 219.4,-166 392,-148 564.6,-166 392,-184"/>
<text text-anchor="middle" x="392" y="-162.3" font-family="Times,serif" font-size="14.00" fill="white">Check Transfer Channel</text>
</g>
<!-- EmitLocalFix&#45;&gt;ChannelCheck -->
<g id="edge4" class="edge">
<title>EmitLocalFix&#45;&gt;ChannelCheck</title>
<path fill="none" stroke="black" d="M223.84,-220.98C264.28,-208 308.84,-193.7 341.93,-183.07"/>
<polygon fill="black" stroke="black" points="343.36,-186.29 351.81,-179.9 341.22,-179.63 343.36,-186.29"/>
</g>
<!-- ToServerFix -->
<g id="node6" class="node">
<title>ToServerFix</title>
<path fill="#fff9c4" stroke="black" d="M512,-274C512,-274 272,-274 272,-274 266,-274 260,-268 260,-262 260,-262 260,-248 260,-248 260,-242 266,-236 272,-236 272,-236 512,-236 512,-236 518,-236 524,-242 524,-248 524,-248 524,-262 524,-262 524,-268 518,-274 512,-274"/>
<text text-anchor="middle" x="392" y="-258.8" font-family="Times,serif" font-size="14.00">Mode != authority → authority</text>
<text text-anchor="middle" x="392" y="-243.8" font-family="Times,serif" font-size="14.00">Sync != call_remote → call_remote</text>
</g>
<!-- ToServer&#45;&gt;ToServerFix -->
<g id="edge6" class="edge">
<title>ToServer&#45;&gt;ToServerFix</title>
<path fill="none" stroke="black" d="M392,-325.81C392,-314.01 392,-298.07 392,-284.4"/>
<polygon fill="black" stroke="black" points="395.5,-284.05 392,-274.05 388.5,-284.05 395.5,-284.05"/>
</g>
<!-- ToServerFix&#45;&gt;ChannelCheck -->
<g id="edge7" class="edge">
<title>ToServerFix&#45;&gt;ChannelCheck</title>
<path fill="none" stroke="black" d="M392,-235.97C392,-223.96 392,-207.93 392,-194.36"/>
<polygon fill="black" stroke="black" points="395.5,-194.12 392,-184.12 388.5,-194.12 395.5,-194.12"/>
</g>
<!-- ToIdAllFix -->
<g id="node8" class="node">
<title>ToIdAllFix</title>
<path fill="#fff9c4" stroke="black" d="M794,-273C794,-273 554,-273 554,-273 548,-273 542,-267 542,-261 542,-261 542,-249 542,-249 542,-243 548,-237 554,-237 554,-237 794,-237 794,-237 800,-237 806,-243 806,-249 806,-249 806,-261 806,-261 806,-267 800,-273 794,-273"/>
<text text-anchor="middle" x="674" y="-251.3" font-family="Times,serif" font-size="14.00">Sync != call_remote → call_remote</text>
</g>
<!-- ToIdAll&#45;&gt;ToIdAllFix -->
<g id="edge9" class="edge">
<title>ToIdAll&#45;&gt;ToIdAllFix</title>
<path fill="none" stroke="black" d="M571.29,-325.81C591.01,-312.41 618.59,-293.66 640.21,-278.97"/>
<polygon fill="black" stroke="black" points="642.46,-281.67 648.76,-273.15 638.53,-275.88 642.46,-281.67"/>
</g>
<!-- ToIdAllFix&#45;&gt;ChannelCheck -->
<g id="edge10" class="edge">
<title>ToIdAllFix&#45;&gt;ChannelCheck</title>
<path fill="none" stroke="black" d="M618.62,-236.92C567.64,-221.19 492.64,-198.05 443.07,-182.76"/>
<polygon fill="black" stroke="black" points="444.1,-179.41 433.51,-179.81 442.03,-186.1 444.1,-179.41"/>
</g>
<!-- ChannelFix -->
<g id="node10" class="node">
<title>ChannelFix</title>
<path fill="#fff9c4" stroke="black" d="M446,-111C446,-111 338,-111 338,-111 332,-111 326,-105 326,-99 326,-99 326,-85 326,-85 326,-79 332,-73 338,-73 338,-73 446,-73 446,-73 452,-73 458,-79 458,-85 458,-85 458,-99 458,-99 458,-105 452,-111 446,-111"/>
<text text-anchor="middle" x="392" y="-95.8" font-family="Times,serif" font-size="14.00">channel &lt; 0 → 0</text>
<text text-anchor="middle" x="392" y="-80.8" font-family="Times,serif" font-size="14.00">channel &gt; 4 → 4</text>
</g>
<!-- ChannelCheck&#45;&gt;ChannelFix -->
<g id="edge11" class="edge">
<title>ChannelCheck&#45;&gt;ChannelFix</title>
<path fill="none" stroke="black" d="M392,-147.94C392,-139.99 392,-130.31 392,-121.31"/>
<polygon fill="black" stroke="black" points="395.5,-121.2 392,-111.2 388.5,-121.2 395.5,-121.2"/>
</g>
<!-- End -->
<g id="node11" class="node">
<title>End</title>
<ellipse fill="#8bc34a" stroke="black" cx="392" cy="-18" rx="29.5" ry="18"/>
<text text-anchor="middle" x="392" y="-14.3" font-family="Times,serif" font-size="14.00" fill="white">End</text>
</g>
<!-- ChannelFix&#45;&gt;End -->
<g id="edge12" class="edge">
<title>ChannelFix&#45;&gt;End</title>
<path fill="none" stroke="black" d="M392,-72.83C392,-64.89 392,-55.41 392,-46.63"/>
<polygon fill="black" stroke="black" points="395.5,-46.42 392,-36.42 388.5,-46.42 395.5,-46.42"/>
</g>
</g>
</svg>
