<?xml version="1.0" encoding="UTF-8"?>
<svg xmlns="http://www.w3.org/2000/svg" version="1.1" viewBox="0 0 566.9 425.2">
  <!-- Generator: Adobe Illustrator 29.2.1, SVG Export Plug-In . SVG Version: 2.1.0 Build 116)  -->
  <defs>
    <style>
      .st0 {
        fill: #f8cb00;
        stroke: #aa8900;
      }

      .st0, .st1, .st2, .st3 {
        stroke-miterlimit: 10;
      }

      .st0, .st2, .st3 {
        stroke-width: 2px;
      }

      .st1 {
        fill: none;
        stroke: #9d9d9c;
      }

      .st2 {
        stroke: #006027;
      }

      .st2, .st4 {
        fill: #008c3c;
      }

      .st5 {
        fill: #fff;
      }

      .st6 {
        fill: #006027;
      }

      .st3 {
        stroke: #1c4e77;
      }

      .st3, .st7 {
        fill: #3176bb;
      }

      .st8 {
        display: none;
      }

      .st9 {
        fill: #1c4e77;
      }

      .st10 {
        opacity: .5;
      }
    </style>
  </defs>
  <g id="Ebene_2" class="st8">
    <g class="st10">
      <path d="M277.7,54.1c-15.4,3.4-30.5,8.2-44.8,15.3.3,12.6,1.1,24.6,2.8,36.9-5.5,3.5-11.3,6.6-16.5,10.7-5.2,4-10.6,7.9-15.4,12.6-9.5-6.3-19.5-12.2-29.9-17.4-11.2,12-21.6,25-30.1,39.5,6.7,10.5,13.9,21.1,20.5,29.3v89c.2,0,.3,0,.5,0l54.6,5.3c2.9.3,5.1,2.6,5.3,5.4l1.7,24.1,47.6,3.4,3.3-22.2c.4-2.9,2.9-5,5.8-5h57.6c2.9,0,5.4,2.1,5.8,5l3.3,22.2,47.6-3.4,1.7-24.1c.2-2.9,2.4-5.2,5.3-5.4l54.6-5.3c.2,0,.3,0,.5,0v-7.1h0v-81.9c7.7-9.7,15-20.3,20.5-29.3-8.5-14.5-19-27.5-30.1-39.5-10.4,5.2-20.4,11.1-29.9,17.4-4.8-4.7-10.1-8.6-15.4-12.6-5.2-4.1-11-7.2-16.5-10.7,1.6-12.2,2.5-24.3,2.8-36.9-14.2-7.2-29.4-11.9-44.8-15.3-6.1,10.3-11.7,21.5-16.6,32.4-5.8-1-11.6-1.3-17.4-1.4h0s0,0-.1,0,0,0-.1,0h0c-5.8,0-11.7.4-17.5,1.4-4.9-10.9-10.5-22.1-16.6-32.4ZM234.5,184.3c18.2,0,32.9,14.7,32.9,32.9s-14.7,32.9-32.9,32.9-32.9-14.7-32.9-32.9,14.7-32.9,32.9-32.9ZM389.3,184.3c18.2,0,32.9,14.7,32.9,32.9s-14.7,32.9-32.9,32.9-32.9-14.7-32.9-32.9,14.7-32.9,32.9-32.9ZM311.9,203.6c5.8,0,10.6,4.3,10.6,9.6v30.3c0,5.3-4.7,9.6-10.6,9.6s-10.6-4.3-10.6-9.6v-30.3c0-5.3,4.7-9.6,10.6-9.6Z"/>
      <g>
        <path d="M410.5,286.6l-1.7,24.2c-.2,2.9-2.5,5.2-5.4,5.5l-58.1,4.1c-.1,0-.3,0-.4,0-2.9,0-5.4-2.1-5.8-5l-3.3-22.6h-47.4l-3.3,22.6c-.4,3-3.2,5.2-6.2,5l-58.1-4.1c-2.9-.2-5.2-2.5-5.4-5.5l-1.7-24.2-49.1-4.7c0,5.3,0,11.1,0,12.2,0,51.8,65.8,76.8,147.5,77h.2c81.7-.3,147.4-25.2,147.4-77s0-6.9,0-12.2l-49.1,4.7Z"/>
        <path d="M259.5,219.2c0,12.1-9.8,21.8-21.8,21.8s-21.8-9.8-21.8-21.8,9.8-21.8,21.8-21.8,21.8,9.8,21.8,21.8"/>
        <path d="M364.3,219.2c0,12.1,9.8,21.8,21.8,21.8s21.8-9.8,21.8-21.8-9.8-21.8-21.8-21.8-21.8,9.8-21.8,21.8"/>
      </g>
    </g>
  </g>
  <g id="Ebene_1">
    <g>
      <path class="st1" d="M368.7,275.5v-20.1c4.4-5.6,8.6-11.8,11.9-16.9-4.9-8.4-11-15.9-17.4-22.8-6,3-11.8,6.4-17.3,10-2.7-2.7-5.8-5-8.9-7.3-3-2.4-6.3-4.2-9.5-6.2.9-7.1,1.4-14,1.6-21.3-8.2-4.1-17-6.9-25.9-8.9-3.5,6-6.8,12.4-9.6,18.7-3.3-.6-6.7-.8-10.1-.8h0s0,0,0,0,0,0,0,0h0c-3.4,0-6.7.3-10.1.8-2.8-6.3-6.1-12.8-9.6-18.7-8.9,2-17.6,4.7-25.9,8.9.2,7.3.7,14.2,1.6,21.3-3.2,2-6.6,3.8-9.5,6.2-3,2.3-6.1,4.6-8.9,7.3-5.5-3.6-11.3-7-17.3-10-6.4,6.9-12.5,14.4-17.4,22.8,3.9,6.1,8,12.2,11.9,16.9v20.1"/>
      <g>
        <path class="st3" d="M441.2,217.6c2.2,5.2-.3,11.1-5.4,13.3-5.2,2.2-11.1-.3-13.3-5.4-2.2-5.2.3-11.1,5.4-13.3,5.2-2.2,11.1.3,13.3,5.4Z"/>
        <path class="st2" d="M125.8,218.8c-2.2,5.2.3,11.1,5.5,13.3,5.2,2.2,11.1-.3,13.3-5.5,2.2-5.2-.3-11.1-5.5-13.3-5.2-2.2-11.1.3-13.3,5.5Z"/>
        <path class="st0" d="M269.9,116.9c-3.1,7.5.4,16.1,7.9,19.2,7.5,3.1,16.1-.4,19.2-7.9,3.1-7.5-.4-16.1-7.9-19.2-7.5-3.1-16.1.4-19.2,7.9Z"/>
        <path d="M216.9,139.8c-.5.2-1.1.5-1.6.7-.5.2-.8.7-.8,1.2s0,.4.1.6c.3.7,1.1,1,1.8.7.5-.2,1.1-.5,1.6-.7.7-.3,1-1.1.7-1.8-.3-.7-1.1-1-1.8-.7Z"/>
        <path d="M249.3,129.4c-.6.1-1.2.2-1.8.4-.6.1-1.1.7-1.1,1.3s0,.2,0,.3c.2.7.9,1.2,1.6,1,.6-.1,1.2-.2,1.7-.4.7-.2,1.2-.9,1-1.6-.2-.7-.9-1.2-1.6-1Z"/>
        <path d="M154,188.8c-2.2,2.8-4.3,5.7-6.3,8.7-.2.2-.2.5-.2.8,0,.4.2.9.6,1.1.6.4,1.5.3,1.9-.4,2-2.9,4.1-5.8,6.2-8.5.5-.6.4-1.4-.2-1.9-.6-.5-1.4-.4-1.9.2Z"/>
        <path d="M162.1,179.3c-.4.4-.8.9-1.2,1.3-.2.3-.3.6-.3.9s.2.7.5,1c.6.5,1.4.4,1.9-.1.4-.4.8-.9,1.2-1.3.5-.6.5-1.4,0-1.9-.6-.5-1.4-.5-1.9,0Z"/>
        <path d="M205.6,145.3c-3.1,1.7-6.3,3.5-9.3,5.4-.4.3-.6.7-.6,1.1s0,.5.2.7c.4.6,1.2.8,1.9.4,3-1.9,6.1-3.6,9.1-5.3.7-.4.9-1.2.6-1.8-.4-.7-1.2-.9-1.8-.6Z"/>
        <path d="M177.6,164.4c-2.7,2.3-5.4,4.7-8,7.2-.3.3-.4.6-.4,1s.1.7.4.9c.5.5,1.4.6,1.9,0,2.5-2.4,5.2-4.8,7.8-7.1.6-.5.6-1.3.2-1.9-.5-.6-1.3-.6-1.9-.2Z"/>
        <path d="M187.4,156.7c-.5.3-1,.7-1.4,1.1-.4.3-.5.7-.5,1.1s0,.6.3.8c.4.6,1.3.7,1.9.3.5-.3.9-.7,1.4-1,.6-.4.7-1.3.3-1.9-.4-.6-1.3-.7-1.9-.3Z"/>
        <path d="M237.1,132.4c-3.4,1-6.9,2.1-10.2,3.3-.5.2-.9.7-.9,1.3s0,.3,0,.5c.3.7,1,1.1,1.7.8,3.3-1.2,6.7-2.3,10-3.3.7-.2,1.1-1,.9-1.7-.2-.7-1-1.1-1.7-.9Z"/>
        <path d="M368.1,150c-3-1.9-6.2-3.7-9.3-5.3-.7-.3-1.5,0-1.8.6-.1.2-.2.4-.2.6,0,.5.3,1,.7,1.2,3.1,1.6,6.2,3.4,9.2,5.2.6.4,1.5.2,1.9-.4.4-.6.2-1.5-.4-1.9Z"/>
        <path d="M377,156c-.6-.4-1.5-.3-1.9.3-.2.2-.2.5-.2.8,0,.4.2.8.6,1.1.5.3,1,.7,1.4,1,.6.4,1.4.3,1.9-.3.4-.6.3-1.4-.3-1.9-.5-.4-1-.7-1.5-1Z"/>
        <path d="M337.5,135.4c-3.4-1.2-6.8-2.3-10.2-3.3-.7-.2-1.5.2-1.7.9,0,.1,0,.2,0,.4,0,.6.4,1.1,1,1.3,3.4,1,6.8,2,10.1,3.2.7.3,1.5-.1,1.7-.8.2-.7-.1-1.5-.8-1.7Z"/>
        <path d="M349.1,140c-.5-.2-1.1-.5-1.6-.7-.7-.3-1.5,0-1.8.7,0,.2-.1.4-.1.5,0,.5.3,1,.8,1.2.5.2,1.1.5,1.6.7.7.3,1.5,0,1.8-.7.3-.7,0-1.5-.7-1.8Z"/>
        <path d="M387,163.6c-.6-.5-1.4-.4-1.9.2-.2.3-.3.6-.3.9s.2.8.5,1c2.7,2.2,5.4,4.6,7.9,7,.5.5,1.4.5,1.9,0,.5-.5.5-1.4,0-1.9-2.6-2.5-5.3-4.9-8-7.1Z"/>
        <path d="M417.1,196.5c-2-2.9-4.2-5.8-6.4-8.6-.5-.6-1.3-.7-1.9-.2-.3.3-.5.7-.5,1.1s0,.6.3.8c2.2,2.7,4.3,5.6,6.3,8.5.4.6,1.3.8,1.9.3.6-.4.8-1.3.3-1.9Z"/>
        <path d="M402.6,178.4c-.5-.5-1.4-.6-1.9,0-.3.3-.4.6-.4,1s.1.7.4.9c.4.4.8.9,1.2,1.3.5.6,1.4.6,1.9,0,.6-.5.6-1.4,0-1.9-.4-.4-.8-.9-1.2-1.3Z"/>
        <path d="M316.8,129.5c-.6-.1-1.2-.2-1.7-.4-.7-.1-1.4.3-1.6,1.1,0,0,0,.2,0,.3,0,.6.4,1.2,1.1,1.3.6.1,1.1.2,1.7.4.7.2,1.4-.3,1.6-1,.2-.7-.3-1.4-1-1.6Z"/>
      </g>
      <g>
        <g>
          <path class="st7" d="M113.8,304.9c-15.7,0-28.3-12.7-28.3-28.3s12.7-28.3,28.3-28.3,28.4,12.7,28.4,28.3-12.7,28.3-28.4,28.3"/>
          <g>
            <path class="st9" d="M113.8,308.4c-17.6,0-31.8-14.3-31.8-31.8s14.3-31.8,31.8-31.8,31.9,14.3,31.9,31.8-14.3,31.8-31.9,31.8ZM113.8,251.7c-13.7,0-24.8,11.1-24.8,24.8s11.1,24.8,24.8,24.8,24.9-11.1,24.9-24.8-11.1-24.8-24.9-24.8Z"/>
            <path class="st5" d="M113.8,245.7c17,0,30.9,13.8,30.9,30.8s-13.8,30.8-30.9,30.8-30.8-13.8-30.8-30.8,13.8-30.8,30.8-30.8M113.8,302.4c14.3,0,25.9-11.6,25.9-25.8s-11.6-25.8-25.9-25.8-25.8,11.6-25.8,25.8,11.6,25.8,25.8,25.8M113.8,243.7c-18.1,0-32.8,14.7-32.8,32.8s14.7,32.8,32.8,32.8,32.9-14.7,32.9-32.8-14.7-32.8-32.9-32.8h0ZM113.8,300.4c-13.1,0-23.8-10.7-23.8-23.8s10.7-23.8,23.8-23.8,23.9,10.7,23.9,23.8-10.7,23.8-23.9,23.8h0Z"/>
          </g>
        </g>
        <g>
          <path class="st5" d="M102.7,274.6h-2.3v-.7c0-.3,0-.5,0-.6s-.2-.1-.3-.1-.3,0-.3.2-.1.3-.1.6,0,.6.1.7c0,.2.3.4.7.6,1.1.7,1.8,1.2,2.1,1.6s.4,1.1.4,2,0,1.2-.2,1.5-.5.6-.9.8-1,.3-1.6.3-1.2-.1-1.7-.4-.8-.6-.9-1-.2-.9-.2-1.6v-.6h2.3v1.2c0,.4,0,.6,0,.7s.2.2.3.2.3,0,.4-.2.1-.3.1-.6c0-.6,0-.9-.2-1.1-.2-.2-.5-.5-1.2-.9-.6-.4-1-.7-1.2-.9s-.4-.4-.5-.8-.2-.7-.2-1.2c0-.7,0-1.3.3-1.6s.5-.6.9-.8.9-.3,1.5-.3,1.2.1,1.6.3.8.5.9.8.2.8.2,1.6v.4Z"/>
          <path class="st5" d="M106.1,271.8v9.5h-2.5v-9.5h2.5Z"/>
          <path class="st5" d="M112.8,275.3h-2.5v-.9c0-.5,0-.9,0-1s-.2-.2-.3-.2-.3,0-.3.2,0,.4,0,.9v4.6c0,.4,0,.7,0,.8s.2.2.3.2.3,0,.4-.2,0-.4,0-.9v-1.1h-.5v-1.4h2.9v5.1h-1.6l-.2-.7c-.2.3-.4.5-.6.7s-.6.2-.9.2-.8-.1-1.2-.3c-.4-.2-.6-.5-.8-.7-.2-.3-.3-.6-.4-.9s0-.8,0-1.5v-2.8c0-.9,0-1.6.1-2s.4-.8.8-1.1,1.1-.5,1.8-.5,1.3.1,1.8.4.8.6.9,1.1.2,1,.2,1.8v.4Z"/>
          <path class="st5" d="M119.2,271.8v9.5h-2.2l-1.3-4.3v4.3h-2.1v-9.5h2.1l1.4,4.3v-4.3h2.1Z"/>
          <path class="st5" d="M124.5,271.8l1.4,9.5h-2.5v-1.7h-1v1.7h-2.7l1.3-9.5h3.6ZM123.2,277.9c-.1-1.1-.3-2.4-.4-4-.3,1.8-.4,3.1-.5,4h.8Z"/>
          <path class="st5" d="M128.8,271.8v7.6h1.5v1.9h-4v-9.5h2.5Z"/>
        </g>
      </g>
      <g>
        <g>
          <path class="st4" d="M453.2,304.9c-15.7,0-28.3-12.7-28.3-28.3s12.7-28.3,28.3-28.3,28.4,12.7,28.4,28.3-12.7,28.3-28.4,28.3"/>
          <g>
            <path class="st6" d="M453.2,308.4c-17.6,0-31.8-14.3-31.8-31.8s14.3-31.8,31.8-31.8,31.9,14.3,31.9,31.8-14.3,31.8-31.9,31.8ZM453.2,251.7c-13.7,0-24.8,11.1-24.8,24.8s11.1,24.8,24.8,24.8,24.9-11.1,24.9-24.8-11.1-24.8-24.9-24.8Z"/>
            <path class="st5" d="M453.2,245.7c17,0,30.9,13.8,30.9,30.8s-13.8,30.8-30.9,30.8-30.8-13.8-30.8-30.8,13.8-30.8,30.8-30.8M453.2,302.4c14.3,0,25.9-11.6,25.9-25.8s-11.6-25.8-25.9-25.8-25.8,11.6-25.8,25.8,11.6,25.8,25.8,25.8M453.2,243.7c-18.1,0-32.8,14.7-32.8,32.8s14.7,32.8,32.8,32.8,32.9-14.7,32.9-32.8-14.7-32.8-32.9-32.8h0ZM453.2,300.4c-13.1,0-23.8-10.7-23.8-23.8s10.7-23.8,23.8-23.8,23.9,10.7,23.9,23.8-10.7,23.8-23.9,23.8h0Z"/>
          </g>
        </g>
        <g>
          <path class="st5" d="M444,271.8h1.7c1.2,0,2,0,2.4.1s.7.3,1,.7.4,1,.4,1.8,0,1.2-.3,1.5-.5.4-1.1.5c.5.1.8.3,1,.5s.3.4.3.6,0,.6,0,1.4v2.5h-2.3v-3.2c0-.5,0-.8-.1-.9s-.3-.2-.6-.2v4.3h-2.5v-9.5ZM446.5,273.4v2.1c.3,0,.5,0,.6-.1s.2-.3.2-.7v-.5c0-.3,0-.5-.2-.6s-.3-.1-.6-.1Z"/>
          <path class="st5" d="M450.5,271.8h2.5c.7,0,1.2,0,1.5.2s.6.3.8.5.3.4.4.7,0,.7,0,1.3v.8c0,.6,0,1-.2,1.3s-.4.5-.7.6-.8.2-1.3.2h-.7v3.8h-2.5v-9.5ZM453,273.4v2.4c0,0,.1,0,.2,0,.2,0,.4,0,.5-.2s.1-.3.1-.7v-.8c0-.3,0-.5-.2-.6s-.3-.1-.6-.1Z"/>
          <path class="st5" d="M462.3,275.9h-2.5v-1.6c0-.5,0-.8,0-.9,0-.1-.2-.2-.3-.2s-.3,0-.4.2,0,.5,0,.9v4.4c0,.5,0,.8,0,.9s.2.2.4.2.3,0,.4-.2c0-.1,0-.5,0-1v-1.2h2.5v.4c0,1,0,1.7-.2,2.1-.1.4-.4.8-.9,1.1-.5.3-1.1.5-1.8.5s-1.3-.1-1.8-.4-.8-.6-.9-1.1-.2-1.2-.2-2.1v-2.8c0-.7,0-1.2,0-1.5s.2-.7.4-1,.6-.6,1-.7.9-.3,1.4-.3,1.3.1,1.8.4c.5.3.8.6.9,1.1s.2,1.1.2,2v.9Z"/>
        </g>
      </g>
      <g>
        <g>
          <polygon points="159.6 317.6 159.6 279.4 177.3 279.4 177.3 288.7 171 288.7 171 293.5 176.9 293.5 176.9 302.4 171 302.4 171 308.4 177.9 308.4 177.9 317.6 159.6 317.6"/>
          <path class="st5" d="M176.3,280.4v7.2h-6.3v6.9h5.9v6.9h-5.9v7.9h6.9v7.2h-16.3v-36.1h15.7M178.3,278.4h-19.7v40.1h20.3v-11.2h-6.9v-3.9h5.9v-10.9h-5.9v-2.9h6.3v-11.2h0Z"/>
        </g>
        <g>
          <path d="M182.1,317.6l-5.7-38.1h12v.9c.6,4.7,1.1,9.1,1.5,13.2.2-2.3.4-4.4.6-6.4l.7-7.6h12l-5,38.1h-16Z"/>
          <path class="st5" d="M202,280.4l-4.8,36.1h-14.3l-5.4-36.1h9.9c1.2,10,2,18.4,2.5,25.3.5-7,1-13.1,1.5-18.5l.7-6.7h9.9M204.3,278.4h-14l-.2,1.8-.3,3.2c-.1-1.1-.2-2.2-.4-3.3l-.2-1.8h-14l.3,2.3,5.4,36.1.3,1.7h17.8l.2-1.7,4.8-36.1.3-2.3h0Z"/>
        </g>
        <g>
          <polygon points="202.6 317.6 202.6 279.4 220.2 279.4 220.2 288.7 214 288.7 214 293.5 219.8 293.5 219.8 302.4 214 302.4 214 308.4 220.9 308.4 220.9 317.6 202.6 317.6"/>
          <path class="st5" d="M219.2,280.4v7.2h-6.3v6.9h5.9v6.9h-5.9v7.9h6.9v7.2h-16.3v-36.1h15.7M221.2,278.4h-19.7v40.1h20.3v-11.2h-6.9v-3.9h5.9v-10.9h-5.9v-2.9h6.3v-11.2h0Z"/>
        </g>
        <g>
          <polygon points="234.6 317.6 231.4 307 231.4 317.6 221.6 317.6 221.6 279.4 231.2 279.4 234.7 290.4 234.7 279.4 244.6 279.4 244.6 317.6 234.6 317.6"/>
          <path class="st5" d="M243.6,280.4v36.1h-8.2l-4.9-16.4v16.4h-7.9v-36.1h7.9l5.3,16.3v-16.3h7.9M245.6,278.4h-11.9v5.6l-1.4-4.2-.4-1.4h-11.3v40.1h11.9v-4.7l1,3.3.4,1.4h11.7v-40.1h0Z"/>
        </g>
        <g>
          <polygon points="250.3 317.6 250.3 288.7 244.7 288.7 244.7 279.4 267.3 279.4 267.3 288.7 261.7 288.7 261.7 317.6 250.3 317.6"/>
          <path class="st5" d="M266.3,280.4v7.2h-5.6v28.9h-9.4v-28.9h-5.6v-7.2h20.5M268.3,278.4h-24.5v11.2h5.6v28.9h13.4v-28.9h5.6v-11.2h0Z"/>
        </g>
        <g>
          <path d="M275.5,317.6v-38.1h10.4c3.1,0,5.4.2,7,.7,1.7.5,3.2,1.6,4.2,3.2,1.1,1.6,1.6,4,1.6,7.3s-.4,4-1.2,5c-.4.5-1,.9-1.7,1.3,1,.5,1.7,1.1,2.2,1.9.9,1.3,1.3,3.2,1.3,5.8v3.3c0,2.6-.3,4.5-.9,5.9-.7,1.4-1.8,2.4-3.2,2.9-1.3.5-3.9.7-7.8.7h-11.9ZM286.9,309.3c.6,0,.8-.2.8-.2,0,0,.3-.4.3-2v-3.4c0-1.6-.2-2.1-.2-2.1,0,0,0,0,0,0,0,0-.2,0-.8-.2v8ZM286.9,293.6c.7,0,.8-.2.8-.2,0,0,.3-.7.3-3.4s-.2-1.8-.2-2c-.1-.2-.2-.3-.2-.3,0,0-.2,0-.6,0v6Z"/>
          <path class="st5" d="M285.8,280.4c3,0,5.2.2,6.7.7,1.5.5,2.8,1.4,3.7,2.8.9,1.4,1.4,3.7,1.4,6.8s-.3,3.6-1,4.4c-.7.8-2,1.5-3.9,1.9,2.2.5,3.6,1.3,4.4,2.4.8,1.1,1.2,2.9,1.2,5.2v3.4c0,2.4-.3,4.3-.8,5.4-.6,1.2-1.4,2-2.7,2.4-1.2.4-3.7.6-7.5.6h-10.9v-36.1h9.4M285.9,294.7c.4,0,.7,0,.9,0,.9,0,1.5-.2,1.8-.7.3-.5.4-1.8.4-3.9s-.1-1.9-.3-2.4c-.2-.5-.5-.7-.8-.9-.3-.1-1-.2-2-.2v8M285.9,310.4c1.3,0,2.2-.3,2.5-.6.4-.4.5-1.3.5-2.7v-3.4c0-1.5-.2-2.5-.5-2.8-.3-.3-1.2-.5-2.6-.6v10.1M285.8,278.4h-11.4v40.1h12.9c5.4,0,7.2-.4,8.2-.8,1.7-.6,3-1.8,3.8-3.4.7-1.5,1-3.5,1-6.3v-3.4c0-2.8-.5-4.9-1.5-6.4-.3-.5-.7-.9-1.2-1.3.2-.2.5-.4.6-.7,1-1.2,1.4-3.1,1.4-5.7s-.6-6.1-1.7-7.9c-1.2-1.8-2.8-3-4.8-3.6-1.7-.5-4.1-.8-7.3-.8h0Z"/>
        </g>
        <g>
          <path d="M313,317.6v-13c0-2.5-.3-3-.3-3h0s-.1-.1-.6-.2v16.2h-11.4v-38.1h7.7c4.6,0,7.6.2,9.2.5,1.8.4,3.3,1.4,4.4,3,1.1,1.6,1.7,4,1.7,7.3s-.4,5.1-1.2,6.3c-.4.6-.9,1-1.6,1.3.5.3.9.6,1.2,1,.7.9,1.2,1.7,1.4,2.5.1.5.3,1.6.3,5.6v10.5h-10.7ZM312.1,293.6c.4,0,.6-.2.7-.2h0s.2-.4.2-2v-2c0-1.3-.3-1.5-.3-1.5,0,0-.2-.1-.6-.2v5.9Z"/>
          <path class="st5" d="M308.4,280.4c4.4,0,7.4.2,9,.5,1.6.3,2.9,1.2,3.8,2.6,1,1.4,1.5,3.6,1.5,6.7s-.4,4.7-1.1,5.7c-.7,1-2.1,1.5-4.1,1.7,1.9.5,3.1,1.1,3.8,1.9s1,1.5,1.2,2.1c.2.6.2,2.4.2,5.3v9.5h-8.7v-12c0-1.9-.2-3.1-.5-3.6-.3-.5-1.1-.7-2.4-.7v16.3h-9.4v-36.1h6.7M311.1,294.7c1.1,0,1.8-.1,2.2-.4.4-.3.6-1.2.6-2.8v-2c0-1.1-.2-1.9-.6-2.3-.4-.4-1.2-.5-2.2-.5v8M308.4,278.4h-8.7v40.1h25v-11.5c0-4.1-.1-5.2-.3-5.8-.2-1-.8-1.9-1.6-2.9,0-.1-.2-.2-.3-.3.3-.2.5-.5.8-.8,1-1.3,1.4-3.5,1.4-6.8s-.6-6.1-1.8-7.9c-1.3-1.8-3-3-5.1-3.4-1.7-.4-4.8-.6-9.4-.6h0Z"/>
        </g>
        <g>
          <rect x="325.3" y="279.4" width="11.4" height="38.1"/>
          <path class="st5" d="M335.7,280.4v36.1h-9.4v-36.1h9.4M337.7,278.4h-13.4v40.1h13.4v-40.1h0Z"/>
        </g>
        <g>
          <path d="M338.5,317.6v-38.1h8c4.7,0,7.8.2,9.5.7,1.8.5,3.2,1.3,4.2,2.4,1,1.1,1.6,2.3,1.8,3.7.2,1.2.3,3.5.3,7.1v12.7c0,3.4-.2,5.6-.5,6.8-.4,1.3-1,2.3-1.9,3.1-.9.7-2,1.2-3.2,1.5-1.2.3-2.9.4-5.3.4h-12.9ZM349.9,309.3c.4,0,.6-.2.6-.2,0,0,.3-.8.3-3.9v-14c0-2,0-2.7-.1-2.9,0-.2-.1-.3-.2-.4,0,0-.2,0-.6-.1v21.7Z"/>
          <path class="st5" d="M346.5,280.4c4.5,0,7.6.2,9.2.6,1.6.4,2.8,1.1,3.7,2.1.8,1,1.4,2,1.6,3.2.2,1.2.3,3.5.3,6.9v12.7c0,3.2-.2,5.4-.5,6.5-.3,1.1-.8,1.9-1.6,2.6-.8.6-1.7,1-2.8,1.3-1.1.2-2.8.4-5,.4h-11.9v-36.1h7M348.9,310.4c1.4,0,2.2-.3,2.5-.8.3-.5.5-2,.5-4.4v-14c0-1.6,0-2.7-.2-3.1-.1-.5-.3-.8-.7-1-.4-.2-1.1-.3-2.1-.3v23.8M346.5,278.4h-9v40.1h13.9c2.4,0,4.2-.1,5.5-.4,1.4-.3,2.6-.9,3.6-1.7,1.1-.9,1.8-2.1,2.3-3.6.4-1.3.5-3.5.5-7v-12.7c0-3.6-.1-5.9-.3-7.2-.3-1.5-1-2.9-2-4.1-1.1-1.3-2.7-2.2-4.7-2.7-1.8-.5-5-.7-9.7-.7h0Z"/>
        </g>
        <g>
          <path d="M373.7,318.4c-1.7,0-3.4-.4-4.9-1.3-1.5-.8-2.7-1.9-3.5-3.2-.8-1.2-1.3-2.6-1.5-4-.2-1.3-.3-3.2-.3-5.7v-10.7c0-3.6.2-6.1.6-7.8.4-1.8,1.6-3.4,3.6-4.9,1.9-1.4,4.4-2.1,7.4-2.1s5.4.6,7.4,1.8c2,1.2,3.3,2.8,4,4.5.6,1.7.9,4,.9,7.1v2.6h-11.4v-4.3c0-2.7-.2-3.4-.2-3.6,0,0-.1-.1-.3-.1s-.3,0-.3,0c0,0-.2.6-.2,3v6.3h12.4v21.4h-7.6l-.5-1.5c-.5.5-1,.9-1.6,1.2-1.1.6-2.5,1-3.9,1ZM374.9,307.3c0,2,.2,2.7.2,2.8,0,0,0,.1.3.1s.4-.1.5-.3c0-.2.3-.9.3-3v-3.3h-1.3v3.6Z"/>
          <path class="st5" d="M375.1,279.7c2.8,0,5,.6,6.9,1.7,1.8,1.1,3,2.5,3.5,4,.6,1.6.8,3.8.8,6.8v1.6h-9.4v-3.3c0-2.1,0-3.4-.3-3.9-.2-.5-.6-.8-1.3-.8s-1,.2-1.2.7c-.2.4-.3,1.6-.3,3.4v17.3c0,1.6.1,2.7.3,3.2.2.5.6.8,1.3.8s1.1-.3,1.4-.9c.2-.6.4-1.7.4-3.4v-4.3h-1.9v-5.5h11v19.4h-5.9l-.9-2.6c-.6,1.1-1.4,2-2.4,2.5-1,.6-2.1.8-3.5.8s-3.1-.4-4.4-1.1c-1.4-.8-2.4-1.7-3.1-2.8-.7-1.1-1.2-2.3-1.3-3.6-.2-1.2-.3-3.1-.3-5.6v-10.7c0-3.5.2-6,.6-7.5.4-1.6,1.4-3,3.2-4.3,1.8-1.3,4-2,6.8-2M375.1,277.7c-3.2,0-5.9.8-8,2.3-2.1,1.6-3.5,3.4-4,5.4-.4,1.7-.6,4.3-.6,8v10.7c0,2.6,0,4.5.3,5.9.2,1.5.8,3,1.6,4.3.9,1.4,2.2,2.6,3.9,3.5,1.7.9,3.5,1.4,5.4,1.4s3.2-.4,4.4-1.1c.2-.1.4-.3.6-.4l.2.7h9.3v-26.4c0-3.2-.3-5.7-.9-7.4-.7-2-2.2-3.7-4.4-5.1-2.1-1.3-4.8-2-7.9-2h0Z"/>
        </g>
        <g>
          <polygon points="389 317.6 389 279.4 406.7 279.4 406.7 288.7 400.4 288.7 400.4 293.5 406.3 293.5 406.3 302.4 400.4 302.4 400.4 308.4 407.3 308.4 407.3 317.6 389 317.6"/>
          <path class="st5" d="M405.7,280.4v7.2h-6.3v6.9h5.9v6.9h-5.9v7.9h6.9v7.2h-16.3v-36.1h15.7M407.7,278.4h-19.7v40.1h20.3v-11.2h-6.9v-3.9h5.9v-10.9h-5.9v-2.9h6.3v-11.2h0Z"/>
        </g>
      </g>
      <g>
        <rect x="240.1" y="232.3" width="86.7" height="33.1" rx="16.6" ry="16.6"/>
        <g>
          <path class="st5" d="M263.7,246.3h-4.9v-1.7c0-1.1,0-1.7-.1-2s-.3-.4-.7-.4-.5.1-.6.3c-.1.2-.2.8-.2,1.8v9c0,.8,0,1.4.2,1.7.1.3.3.4.7.4s.6-.2.7-.5.2-.9.2-1.8v-2.2h-1v-2.9h5.7v10.1h-3.1l-.5-1.3c-.3.6-.8,1-1.3,1.3-.5.3-1.1.4-1.8.4s-1.6-.2-2.3-.6c-.7-.4-1.3-.9-1.6-1.5-.4-.6-.6-1.2-.7-1.9s-.1-1.6-.1-2.9v-5.6c0-1.8,0-3.1.3-3.9.2-.8.7-1.6,1.7-2.2.9-.7,2.1-1,3.6-1s2.6.3,3.6.9c.9.6,1.6,1.3,1.8,2.1s.4,2,.4,3.5v.8Z"/>
          <path class="st5" d="M276.8,250.4c0,1.9,0,3.2-.1,4,0,.8-.4,1.5-.8,2.2-.5.6-1.1,1.1-1.9,1.5-.8.3-1.7.5-2.8.5s-1.9-.2-2.7-.5c-.8-.3-1.4-.8-1.9-1.5-.5-.7-.8-1.4-.9-2.1,0-.8-.1-2.1-.1-4.1v-3.2c0-1.9,0-3.2.1-4,0-.8.4-1.5.8-2.2s1.1-1.1,1.9-1.5c.8-.3,1.7-.5,2.8-.5s1.9.2,2.7.5c.8.3,1.4.8,1.9,1.5.5.7.8,1.4.9,2.1,0,.8.1,2.1.1,4.1v3.2ZM271.9,244.3c0-.9,0-1.4-.1-1.7,0-.2-.3-.4-.6-.4s-.5,0-.6.3c-.1.2-.2.8-.2,1.7v8.8c0,1.1,0,1.8.1,2s.3.4.6.4.5-.1.6-.4.1-1,.1-2.1v-8.6Z"/>
          <path class="st5" d="M278.6,239.4h3.7c2.4,0,4,.1,4.8.3s1.5.6,1.9,1.1.7,1,.8,1.7c.1.6.2,1.8.2,3.6v6.6c0,1.7,0,2.8-.2,3.4-.2.6-.4,1-.8,1.3-.4.3-.9.5-1.5.7-.6.1-1.5.2-2.6.2h-6.2v-18.8ZM283.5,242.6v12.4c.7,0,1.1-.1,1.3-.4.2-.3.2-1.1.2-2.3v-7.3c0-.9,0-1.4,0-1.6,0-.2-.2-.4-.4-.5-.2-.1-.6-.2-1.1-.2Z"/>
          <path class="st5" d="M302.9,250.4c0,1.9,0,3.2-.1,4,0,.8-.4,1.5-.8,2.2-.5.6-1.1,1.1-1.9,1.5-.8.3-1.7.5-2.8.5s-1.9-.2-2.7-.5c-.8-.3-1.4-.8-1.9-1.5-.5-.7-.8-1.4-.9-2.1,0-.8-.1-2.1-.1-4.1v-3.2c0-1.9,0-3.2.1-4,0-.8.4-1.5.8-2.2.5-.7,1.1-1.1,1.9-1.5.8-.3,1.7-.5,2.8-.5s1.9.2,2.7.5c.8.3,1.4.8,1.9,1.5s.8,1.4.9,2.1c0,.8.1,2.1.1,4.1v3.2ZM298,244.3c0-.9,0-1.4-.1-1.7s-.3-.4-.6-.4-.5,0-.6.3c-.1.2-.2.8-.2,1.7v8.8c0,1.1,0,1.8.1,2s.3.4.6.4.5-.1.6-.4c0-.3.1-1,.1-2.1v-8.6Z"/>
          <path class="st5" d="M314.6,239.4v3.8h-2.9v15h-4.9v-15h-2.9v-3.8h10.7Z"/>
        </g>
      </g>
    </g>
  </g>
</svg>