<?xml version="1.0" encoding="UTF-8"?>
<svg id="Ebene_1" xmlns="http://www.w3.org/2000/svg" version="1.1" viewBox="0 0 510.2 283.5">
  <!-- Generator: Adobe Illustrator 29.2.1, SVG Export Plug-In . SVG Version: 2.1.0 Build 116)  -->
  <defs>
    <style>
      .st0 {
        fill: #f8cb00;
        stroke: #aa8900;
      }

      .st0, .st1, .st2, .st3 {
        stroke-miterlimit: 10;
      }

      .st0, .st2, .st3 {
        stroke-width: 2px;
      }

      .st1 {
        fill: none;
        stroke: #9d9d9c;
      }

      .st2 {
        stroke: #006027;
      }

      .st2, .st4 {
        fill: #008c3c;
      }

      .st5 {
        fill: #fff;
      }

      .st6 {
        fill: #006027;
      }

      .st3 {
        stroke: #1c4e77;
      }

      .st3, .st7 {
        fill: #3176bb;
      }

      .st8 {
        fill: #1c4e77;
      }
    </style>
  </defs>
  <path class="st1" d="M340.4,204.6v-20.1c4.4-5.6,8.6-11.8,11.9-16.9-4.9-8.4-11-15.9-17.4-22.8-6,3-11.8,6.4-17.3,10-2.7-2.7-5.8-5-8.9-7.3-3-2.4-6.3-4.2-9.5-6.2.9-7.1,1.4-14,1.6-21.3-8.2-4.1-17-6.9-25.9-8.9-3.5,6-6.8,12.4-9.6,18.7-3.3-.6-6.7-.8-10.1-.8h0s0,0,0,0,0,0,0,0h0c-3.4,0-6.7.3-10.1.8-2.8-6.3-6.1-12.8-9.6-18.7-8.9,2-17.6,4.7-25.9,8.9.2,7.3.7,14.2,1.6,21.3-3.2,2-6.6,3.8-9.5,6.2-3,2.3-6.1,4.6-8.9,7.3-5.5-3.6-11.3-7-17.3-10-6.4,6.9-12.5,14.4-17.4,22.8,3.9,6.1,8,12.2,11.9,16.9v20.1"/>
  <g>
    <path class="st3" d="M412.8,146.7c2.2,5.2-.3,11.1-5.4,13.3-5.2,2.2-11.1-.3-13.3-5.4-2.2-5.2.3-11.1,5.4-13.3,5.2-2.2,11.1.3,13.3,5.4Z"/>
    <path class="st2" d="M97.4,148c-2.2,5.2.3,11.1,5.5,13.3,5.2,2.2,11.1-.3,13.3-5.5,2.2-5.2-.3-11.1-5.5-13.3-5.2-2.2-11.1.3-13.3,5.5Z"/>
    <path class="st0" d="M241.5,46c-3.1,7.5.4,16.1,7.9,19.2,7.5,3.1,16.1-.4,19.2-7.9,3.1-7.5-.4-16.1-7.9-19.2-7.5-3.1-16.1.4-19.2,7.9Z"/>
    <path d="M188.6,68.9c-.5.2-1.1.5-1.6.7-.5.2-.8.7-.8,1.2s0,.4.1.6c.3.7,1.1,1,1.8.7.5-.2,1.1-.5,1.6-.7.7-.3,1-1.1.7-1.8-.3-.7-1.1-1-1.8-.7Z"/>
    <path d="M220.9,58.5c-.6.1-1.2.2-1.8.4-.6.1-1.1.7-1.1,1.3s0,.2,0,.3c.2.7.9,1.2,1.6,1,.6-.1,1.2-.2,1.7-.4.7-.2,1.2-.9,1-1.6-.2-.7-.9-1.2-1.6-1Z"/>
    <path d="M125.7,118c-2.2,2.8-4.3,5.7-6.3,8.7-.2.2-.2.5-.2.8,0,.4.2.9.6,1.1.6.4,1.5.3,1.9-.4,2-2.9,4.1-5.8,6.2-8.5.5-.6.4-1.4-.2-1.9-.6-.5-1.4-.4-1.9.2Z"/>
    <path d="M133.7,108.4c-.4.4-.8.9-1.2,1.3-.2.3-.3.6-.3.9s.2.7.5,1c.6.5,1.4.4,1.9-.1.4-.4.8-.9,1.2-1.3.5-.6.5-1.4,0-1.9-.6-.5-1.4-.5-1.9,0Z"/>
    <path d="M177.3,74.4c-3.1,1.7-6.3,3.5-9.3,5.4-.4.3-.6.7-.6,1.1s0,.5.2.7c.4.6,1.2.8,1.9.4,3-1.9,6.1-3.6,9.1-5.3.7-.4.9-1.2.6-1.8-.4-.7-1.2-.9-1.8-.6Z"/>
    <path d="M149.2,93.5c-2.7,2.3-5.4,4.7-8,7.2-.3.3-.4.6-.4,1s.1.7.4.9c.5.5,1.4.6,1.9,0,2.5-2.4,5.2-4.8,7.8-7.1.6-.5.6-1.3.2-1.9-.5-.6-1.3-.6-1.9-.2Z"/>
    <path d="M159.1,85.8c-.5.3-1,.7-1.4,1.1-.4.3-.5.7-.5,1.1s0,.6.3.8c.4.6,1.3.7,1.9.3.5-.3.9-.7,1.4-1,.6-.4.7-1.3.3-1.9-.4-.6-1.3-.7-1.9-.3Z"/>
    <path d="M208.7,61.6c-3.4,1-6.9,2.1-10.2,3.3-.5.2-.9.7-.9,1.3s0,.3,0,.5c.3.7,1,1.1,1.7.8,3.3-1.2,6.7-2.3,10-3.3.7-.2,1.1-1,.9-1.7-.2-.7-1-1.1-1.7-.9Z"/>
    <path d="M339.7,79.2c-3-1.9-6.2-3.7-9.3-5.3-.7-.3-1.5,0-1.8.6-.1.2-.2.4-.2.6,0,.5.3,1,.7,1.2,3.1,1.6,6.2,3.4,9.2,5.2.6.4,1.5.2,1.9-.4.4-.6.2-1.5-.4-1.9Z"/>
    <path d="M348.7,85.1c-.6-.4-1.5-.3-1.9.3-.2.2-.2.5-.2.8,0,.4.2.8.6,1.1.5.3,1,.7,1.4,1,.6.4,1.4.3,1.9-.3.4-.6.3-1.4-.3-1.9-.5-.4-1-.7-1.5-1Z"/>
    <path d="M309.1,64.5c-3.4-1.2-6.8-2.3-10.2-3.3-.7-.2-1.5.2-1.7.9,0,.1,0,.2,0,.4,0,.6.4,1.1,1,1.3,3.4,1,6.8,2,10.1,3.2.7.3,1.5-.1,1.7-.8.2-.7-.1-1.5-.8-1.7Z"/>
    <path d="M320.7,69.1c-.5-.2-1.1-.5-1.6-.7-.7-.3-1.5,0-1.8.7,0,.2-.1.4-.1.5,0,.5.3,1,.8,1.2.5.2,1.1.5,1.6.7.7.3,1.5,0,1.8-.7.3-.7,0-1.5-.7-1.8Z"/>
    <path d="M358.6,92.7c-.6-.5-1.4-.4-1.9.2-.2.3-.3.6-.3.9s.2.8.5,1c2.7,2.2,5.4,4.6,7.9,7,.5.5,1.4.5,1.9,0,.5-.5.5-1.4,0-1.9-2.6-2.5-5.3-4.9-8-7.1Z"/>
    <path d="M388.8,125.7c-2-2.9-4.2-5.8-6.4-8.6-.5-.6-1.3-.7-1.9-.2-.3.3-.5.7-.5,1.1s0,.6.3.8c2.2,2.7,4.3,5.6,6.3,8.5.4.6,1.3.8,1.9.3.6-.4.8-1.3.3-1.9Z"/>
    <path d="M374.2,107.5c-.5-.5-1.4-.6-1.9,0-.3.3-.4.6-.4,1s.1.7.4.9c.4.4.8.9,1.2,1.3.5.6,1.4.6,1.9,0,.6-.5.6-1.4,0-1.9-.4-.4-.8-.9-1.2-1.3Z"/>
    <path d="M288.5,58.6c-.6-.1-1.2-.2-1.7-.4-.7-.1-1.4.3-1.6,1.1,0,0,0,.2,0,.3,0,.6.4,1.2,1.1,1.3.6.1,1.1.2,1.7.4.7.2,1.4-.3,1.6-1,.2-.7-.3-1.4-1-1.6Z"/>
  </g>
  <path class="st8" d="M85.4,174.8c-17,0-30.8,13.8-30.8,30.8s13.8,30.8,30.8,30.8,30.9-13.8,30.9-30.8-13.8-30.8-30.9-30.8ZM85.4,234h0c-15.7,0-28.3-12.7-28.3-28.3s12.7-28.3,28.3-28.3,28.4,12.7,28.4,28.3-12.7,28.3-28.4,28.3Z"/>
  <path class="st8" d="M85.4,177.3c-15.7,0-28.3,12.7-28.3,28.3s12.7,28.3,28.3,28.3h0c15.7,0,28.4-12.7,28.4-28.3s-12.7-28.3-28.4-28.3ZM85.4,231.5c-14.2,0-25.8-11.6-25.8-25.8s11.6-25.8,25.8-25.8,25.9,11.6,25.9,25.8-11.6,25.8-25.9,25.8Z"/>
  <g>
    <path class="st7" d="M85.4,181.8c-13.1,0-23.8,10.7-23.8,23.8s10.7,23.8,23.8,23.8,23.9-10.7,23.9-23.8-10.7-23.8-23.9-23.8ZM74.3,209.5c-.2.3-.5.6-.9.8s-1,.3-1.6.3-1.2-.1-1.7-.4-.8-.6-.9-1-.2-.9-.2-1.6v-.6h2.3v1.2c0,.4,0,.6,0,.7s.2.2.3.2.3,0,.4-.2.1-.3.1-.6c0-.6,0-.9-.2-1.1-.2-.2-.5-.5-1.2-.9-.6-.4-1-.7-1.2-.9s-.4-.4-.5-.8-.2-.7-.2-1.2c0-.7,0-1.3.3-1.6s.5-.6.9-.8.9-.3,1.5-.3,1.2.1,1.6.3.8.5.9.8.2.8.2,1.6v.4h-2.3v-.7c0-.3,0-.5,0-.6s-.2-.1-.3-.1-.3,0-.3.2-.1.3-.1.6,0,.6.1.7c0,.2.3.4.7.6,1.1.7,1.8,1.2,2.1,1.6s.4,1.1.4,2,0,1.2-.2,1.5ZM77.8,210.4h-2.5v-9.5h2.5v9.5ZM84.4,204.4h-2.5v-.9c0-.5,0-.9,0-1s-.2-.2-.3-.2-.3,0-.3.2,0,.4,0,.9v4.6c0,.4,0,.7,0,.8s.2.2.3.2.3,0,.4-.2,0-.4,0-.9v-1.1h-.5v-1.4h2.9v5.1h-1.6l-.2-.7c-.2.3-.4.5-.6.7s-.6.2-.9.2-.8-.1-1.2-.3c-.4-.2-.6-.5-.8-.7-.2-.3-.3-.6-.4-.9s0-.8,0-1.5v-2.8c0-.9,0-1.6.1-2s.4-.8.8-1.1,1.1-.5,1.8-.5,1.3.1,1.8.4.8.6.9,1.1.2,1,.2,1.8v.4ZM90.9,210.4h-2.2l-1.3-4.3v4.3h-2.1v-9.5h2.1l1.4,4.3v-4.3h2.1v9.5ZM95,210.4v-1.7h-1v1.7h-2.7l1.3-9.5h3.6l1.4,9.5h-2.5ZM101.9,210.4h-4v-9.5h2.5v7.6h1.5v1.9Z"/>
    <path class="st7" d="M94,207h.8c-.1-1.1-.3-2.4-.4-4-.3,1.8-.4,3.1-.5,4Z"/>
  </g>
  <path class="st4" d="M424.6,202.5v2.4c0,0,.1,0,.2,0,.2,0,.4,0,.5-.2s.1-.3.1-.7v-.8c0-.3,0-.5-.2-.6s-.3-.1-.6-.1Z"/>
  <path class="st4" d="M418.2,202.5v2.1c.3,0,.5,0,.6-.1s.2-.3.2-.7v-.5c0-.3,0-.5-.2-.6s-.3-.1-.6-.1Z"/>
  <path class="st6" d="M424.8,174.8c-17,0-30.8,13.8-30.8,30.8s13.8,30.8,30.8,30.8,30.9-13.8,30.9-30.8-13.8-30.8-30.9-30.8ZM424.8,234h0c-15.7,0-28.3-12.7-28.3-28.3s12.7-28.3,28.3-28.3,28.4,12.7,28.4,28.3-12.7,28.3-28.4,28.3Z"/>
  <path class="st6" d="M424.8,177.3c-15.7,0-28.3,12.7-28.3,28.3s12.7,28.3,28.3,28.3h0c15.7,0,28.4-12.7,28.4-28.3s-12.7-28.3-28.4-28.3ZM424.8,231.5c-14.2,0-25.8-11.6-25.8-25.8s11.6-25.8,25.8-25.8,25.9,11.6,25.9,25.8-11.6,25.8-25.9,25.8Z"/>
  <path class="st4" d="M424.8,181.8c-13.1,0-23.8,10.7-23.8,23.8s10.7,23.8,23.8,23.8,23.9-10.7,23.9-23.8-10.7-23.8-23.9-23.8ZM420.8,205.9c.2.2.3.4.3.6s0,.6,0,1.4v2.5h-2.3v-3.2c0-.5,0-.8-.1-.9s-.3-.2-.6-.2v4.3h-2.5v-9.5h1.7c1.2,0,2,0,2.4.1s.7.3,1,.7.4,1,.4,1.8,0,1.2-.3,1.5-.5.4-1.1.5c.5.1.8.3,1,.5ZM427.5,204.4c0,.6,0,1-.2,1.3s-.4.5-.7.6-.8.2-1.3.2h-.7v3.8h-2.5v-9.5h2.5c.7,0,1.2,0,1.5.2s.6.3.8.5.3.4.4.7,0,.7,0,1.3v.8ZM433.9,205h-2.5v-1.6c0-.5,0-.8,0-.9,0-.1-.2-.2-.3-.2s-.3,0-.4.2,0,.5,0,.9v4.4c0,.5,0,.8,0,.9s.2.2.4.2.3,0,.4-.2c0-.1,0-.5,0-1v-1.2h2.5v.4c0,1,0,1.7-.2,2.1-.1.4-.4.8-.9,1.1-.5.3-1.1.5-1.8.5s-1.3-.1-1.8-.4-.8-.6-.9-1.1-.2-1.2-.2-2.1v-2.8c0-.7,0-1.2,0-1.5s.2-.7.4-1,.6-.6,1-.7.9-.3,1.4-.3,1.3.1,1.8.4c.5.3.8.6.9,1.1s.2,1.1.2,2v.9Z"/>
  <g>
    <path d="M132.3,209.6h15.7v7.2h-6.3v6.9h5.9v6.9h-5.9v7.9h6.9v7.2h-16.3v-36.1Z"/>
    <path d="M173.6,209.6l-4.8,36.1h-14.3l-5.4-36.1h9.9c1.2,10,2,18.4,2.5,25.3.5-7,1-13.1,1.5-18.5l.7-6.7h9.9Z"/>
    <path d="M175.2,209.6h15.7v7.2h-6.3v6.9h5.9v6.9h-5.9v7.9h6.9v7.2h-16.3v-36.1Z"/>
    <path d="M215.2,209.6v36.1h-8.2l-4.9-16.4v16.4h-7.9v-36.1h7.9l5.3,16.3v-16.3h7.9Z"/>
    <path d="M237.9,209.6v7.2h-5.6v28.9h-9.4v-28.9h-5.6v-7.2h20.5Z"/>
    <path d="M248.1,209.6h9.4c3,0,5.2.2,6.7.7,1.5.5,2.8,1.4,3.7,2.8.9,1.4,1.4,3.7,1.4,6.8s-.3,3.6-1,4.4-2,1.5-3.9,1.9c2.2.5,3.6,1.3,4.4,2.4.8,1.1,1.2,2.9,1.2,5.2v3.4c0,2.4-.3,4.3-.8,5.4s-1.4,2-2.7,2.4-3.7.6-7.5.6h-10.9v-36.1ZM257.5,215.8v8c.4,0,.7,0,.9,0,.9,0,1.5-.2,1.8-.7s.4-1.8.4-3.9-.1-1.9-.3-2.4c-.2-.5-.5-.7-.8-.9-.3-.1-1-.2-2-.2ZM257.5,229.4v10.1c1.3,0,2.2-.3,2.5-.6.4-.4.5-1.3.5-2.7v-3.4c0-1.5-.2-2.5-.5-2.8-.3-.3-1.2-.5-2.6-.6Z"/>
    <path d="M273.4,209.6h6.7c4.4,0,7.4.2,9,.5,1.6.3,2.9,1.2,3.8,2.6,1,1.4,1.5,3.7,1.5,6.7s-.4,4.7-1.1,5.7c-.7,1-2.1,1.5-4.1,1.7,1.9.5,3.1,1.1,3.8,1.9s1,1.5,1.2,2.1c.2.6.2,2.4.2,5.3v9.5h-8.7v-12c0-1.9-.2-3.1-.5-3.6-.3-.5-1.1-.7-2.4-.7v16.3h-9.4v-36.1ZM282.8,215.8v8c1.1,0,1.8-.1,2.2-.4.4-.3.6-1.2.6-2.8v-2c0-1.1-.2-1.9-.6-2.3-.4-.4-1.2-.5-2.2-.5Z"/>
    <path d="M307.4,209.6v36.1h-9.4v-36.1h9.4Z"/>
    <path d="M311.2,209.6h7c4.5,0,7.6.2,9.2.6,1.6.4,2.8,1.1,3.7,2.1.8,1,1.4,2,1.6,3.2.2,1.2.3,3.5.3,6.9v12.7c0,3.2-.2,5.4-.5,6.5-.3,1.1-.8,1.9-1.6,2.6-.8.6-1.7,1-2.8,1.3-1.1.2-2.8.4-5,.4h-11.9v-36.1ZM320.6,215.8v23.8c1.4,0,2.2-.3,2.5-.8.3-.5.5-2,.5-4.4v-14c0-1.6,0-2.7-.2-3.1s-.3-.8-.7-1c-.4-.2-1.1-.3-2.1-.3Z"/>
    <path d="M358,222.9h-9.4v-3.3c0-2.1,0-3.4-.3-3.9-.2-.5-.6-.8-1.3-.8s-1,.2-1.2.7-.3,1.6-.3,3.4v17.3c0,1.6.1,2.7.3,3.2.2.5.6.8,1.3.8s1.1-.3,1.4-.9c.2-.6.4-1.7.4-3.4v-4.3h-1.9v-5.5h11v19.4h-5.9l-.9-2.6c-.6,1.1-1.4,2-2.4,2.5-1,.6-2.1.8-3.5.8s-3.1-.4-4.4-1.1c-1.4-.8-2.4-1.7-3.1-2.8-.7-1.1-1.2-2.3-1.3-3.6-.2-1.2-.3-3.1-.3-5.6v-10.7c0-3.5.2-6,.6-7.5.4-1.6,1.4-3,3.2-4.3,1.8-1.3,4-2,6.8-2s5,.6,6.9,1.7c1.8,1.1,3,2.5,3.5,4,.6,1.6.8,3.8.8,6.8v1.6Z"/>
    <path d="M361.6,209.6h15.7v7.2h-6.3v6.9h5.9v6.9h-5.9v7.9h6.9v7.2h-16.3v-36.1Z"/>
  </g>
  <g>
    <rect x="211.7" y="161.4" width="86.7" height="33.1" rx="16.6" ry="16.6"/>
    <g>
      <path class="st5" d="M235.4,175.5h-4.9v-1.7c0-1.1,0-1.7-.1-2s-.3-.4-.7-.4-.5.1-.6.3c-.1.2-.2.8-.2,1.8v9c0,.8,0,1.4.2,1.7.1.3.3.4.7.4s.6-.2.7-.5.2-.9.2-1.8v-2.2h-1v-2.9h5.7v10.1h-3.1l-.5-1.3c-.3.6-.8,1-1.3,1.3-.5.3-1.1.4-1.8.4s-1.6-.2-2.3-.6c-.7-.4-1.3-.9-1.6-1.5-.4-.6-.6-1.2-.7-1.9s-.1-1.6-.1-2.9v-5.6c0-1.8,0-3.1.3-3.9.2-.8.7-1.6,1.7-2.2.9-.7,2.1-1,3.6-1s2.6.3,3.6.9c.9.6,1.6,1.3,1.8,2.1s.4,2,.4,3.5v.8Z"/>
      <path class="st5" d="M248.4,179.6c0,1.9,0,3.2-.1,4,0,.8-.4,1.5-.8,2.2-.5.6-1.1,1.1-1.9,1.5-.8.3-1.7.5-2.8.5s-1.9-.2-2.7-.5c-.8-.3-1.4-.8-1.9-1.5-.5-.7-.8-1.4-.9-2.1,0-.8-.1-2.1-.1-4.1v-3.2c0-1.9,0-3.2.1-4,0-.8.4-1.5.8-2.2s1.1-1.1,1.9-1.5c.8-.3,1.7-.5,2.8-.5s1.9.2,2.7.5c.8.3,1.4.8,1.9,1.5.5.7.8,1.4.9,2.1,0,.8.1,2.1.1,4.1v3.2ZM243.5,173.4c0-.9,0-1.4-.1-1.7,0-.2-.3-.4-.6-.4s-.5,0-.6.3c-.1.2-.2.8-.2,1.7v8.8c0,1.1,0,1.8.1,2s.3.4.6.4.5-.1.6-.4.1-1,.1-2.1v-8.6Z"/>
      <path class="st5" d="M250.2,168.6h3.7c2.4,0,4,.1,4.8.3s1.5.6,1.9,1.1.7,1,.8,1.7c.1.6.2,1.8.2,3.6v6.6c0,1.7,0,2.8-.2,3.4-.2.6-.4,1-.8,1.3-.4.3-.9.5-1.5.7-.6.1-1.5.2-2.6.2h-6.2v-18.8ZM255.1,171.8v12.4c.7,0,1.1-.1,1.3-.4.2-.3.2-1.1.2-2.3v-7.3c0-.9,0-1.4,0-1.6,0-.2-.2-.4-.4-.5-.2-.1-.6-.2-1.1-.2Z"/>
      <path class="st5" d="M274.6,179.6c0,1.9,0,3.2-.1,4,0,.8-.4,1.5-.8,2.2-.5.6-1.1,1.1-1.9,1.5-.8.3-1.7.5-2.8.5s-1.9-.2-2.7-.5c-.8-.3-1.4-.8-1.9-1.5-.5-.7-.8-1.4-.9-2.1,0-.8-.1-2.1-.1-4.1v-3.2c0-1.9,0-3.2.1-4,0-.8.4-1.5.8-2.2.5-.7,1.1-1.1,1.9-1.5.8-.3,1.7-.5,2.8-.5s1.9.2,2.7.5c.8.3,1.4.8,1.9,1.5s.8,1.4.9,2.1c0,.8.1,2.1.1,4.1v3.2ZM269.7,173.4c0-.9,0-1.4-.1-1.7s-.3-.4-.6-.4-.5,0-.6.3c-.1.2-.2.8-.2,1.7v8.8c0,1.1,0,1.8.1,2s.3.4.6.4.5-.1.6-.4c0-.3.1-1,.1-2.1v-8.6Z"/>
      <path class="st5" d="M286.2,168.6v3.8h-2.9v15h-4.9v-15h-2.9v-3.8h10.7Z"/>
    </g>
  </g>
</svg>